<?xml version="1.0" encoding="iso-8859-1"?>
<!-- Generator: Adobe Illustrator 16.0.0, SVG Export Plug-In . SVG Version: 6.00 Build 0)  -->
<!DOCTYPE svg PUBLIC "-//W3C//DTD SVG 1.1//EN" "http://www.w3.org/Graphics/SVG/1.1/DTD/svg11.dtd">
<svg version="1.1" id="Capa_1" xmlns="http://www.w3.org/2000/svg" xmlns:xlink="http://www.w3.org/1999/xlink" x="0px" y="0px"
	 width="54.483px" height="54.483px" viewBox="0 0 54.483 54.483" style="enable-background:new 0 0 54.483 54.483;"
	 xml:space="preserve">
<g>
	<path d="M29.77,35.434h16.077v2.336H29.77V35.434z M29.77,32.2h16.077v-2.336H29.77V32.2z M37.802,24.165H29.77V26.5h8.032V24.165z
		 M37.802,17.899H29.77v2.336h8.032V17.899z M29.77,43.308h16.077v-2.336H29.77V43.308z M54.483,10.152v39.005H26.561v0.055
		l-0.236-0.055H0V10.152h2.327v-4.88l22.134,4.88H54.483z M52.454,28.277h-0.771h-1.976v2.755h1.976h0.771V28.277z M4.665,12.952
		v29.036l19.561,4.317V12.952V12.49l-10.609-2.34L4.665,8.175v1.974V12.952z M13.618,46.358L3.497,44.123v2.235H13.618z
		 M26.561,46.358h21.121V12.954h-2.689V26.79l-2.835-2.628l-2.829,2.628V12.954H26.563v33.404H26.561z M22.359,16.529l-10.736-3.575
		l-3.765-1.253l-0.419,1.253l-0.325,0.962l14.5,4.828L22.359,16.529z M22.359,22.79l-14.5-4.828l-0.739,2.217l14.501,4.828
		L22.359,22.79z M22.359,29.049l-14.5-4.829l-0.739,2.217l14.501,4.829L22.359,29.049z M22.359,35.311l-14.5-4.824l-0.739,2.215
		l14.501,4.824L22.359,35.311z M22.359,40.854l-14.5-4.831L7.119,38.24l14.501,4.829L22.359,40.854z"/>
</g>
<g>
</g>
<g>
</g>
<g>
</g>
<g>
</g>
<g>
</g>
<g>
</g>
<g>
</g>
<g>
</g>
<g>
</g>
<g>
</g>
<g>
</g>
<g>
</g>
<g>
</g>
<g>
</g>
<g>
</g>
</svg>
